<mxfile host="Electron" modified="2023-10-01T21:00:07.286Z" agent="Mozilla/5.0 (X11; Linux x86_64) AppleWebKit/537.36 (KHTML, like Gecko) draw.io/21.8.2 Chrome/114.0.5735.289 Electron/25.8.1 Safari/537.36" etag="BvdBYOlCyB86yWGb13Bs" version="21.8.2" type="device">
  <diagram name="Page-1" id="Dnz0zQy7PX-kTr3k-Mge">
    <mxGraphModel dx="1443" dy="2143" grid="1" gridSize="10" guides="1" tooltips="1" connect="1" arrows="1" fold="1" page="1" pageScale="1" pageWidth="850" pageHeight="1100" math="0" shadow="0">
      <root>
        <mxCell id="0" />
        <mxCell id="1" parent="0" />
        <mxCell id="8LwbpmmiyCrg8J6Jn0Ju-1" value="rlibcard &#xa;(реестр карточек читателей)" style="swimlane;fontStyle=0;childLayout=stackLayout;horizontal=1;startSize=60;horizontalStack=0;resizeParent=1;resizeParentMax=0;resizeLast=0;collapsible=1;marginBottom=0;align=center;fontSize=14;rounded=0;swimlaneLine=1;glass=0;fillColor=default;" vertex="1" parent="1">
          <mxGeometry x="-450" y="220" width="250" height="180" as="geometry" />
        </mxCell>
        <mxCell id="8LwbpmmiyCrg8J6Jn0Ju-2" value="pkcard&#x9;serial" style="text;strokeColor=none;fillColor=none;spacingLeft=4;spacingRight=4;overflow=hidden;rotatable=0;points=[[0,0.5],[1,0.5]];portConstraint=eastwest;fontSize=12;whiteSpace=wrap;html=1;" vertex="1" parent="8LwbpmmiyCrg8J6Jn0Ju-1">
          <mxGeometry y="60" width="250" height="30" as="geometry" />
        </mxCell>
        <mxCell id="8LwbpmmiyCrg8J6Jn0Ju-3" value="lclastn&#x9;varchar(40)" style="text;strokeColor=none;fillColor=none;spacingLeft=4;spacingRight=4;overflow=hidden;rotatable=0;points=[[0,0.5],[1,0.5]];portConstraint=eastwest;fontSize=12;whiteSpace=wrap;html=1;" vertex="1" parent="8LwbpmmiyCrg8J6Jn0Ju-1">
          <mxGeometry y="90" width="250" height="30" as="geometry" />
        </mxCell>
        <mxCell id="8LwbpmmiyCrg8J6Jn0Ju-9" value="lcfirstn&#x9;varchar(40)" style="text;strokeColor=none;fillColor=none;spacingLeft=4;spacingRight=4;overflow=hidden;rotatable=0;points=[[0,0.5],[1,0.5]];portConstraint=eastwest;fontSize=12;whiteSpace=wrap;html=1;" vertex="1" parent="8LwbpmmiyCrg8J6Jn0Ju-1">
          <mxGeometry y="120" width="250" height="30" as="geometry" />
        </mxCell>
        <mxCell id="8LwbpmmiyCrg8J6Jn0Ju-4" value="lcthirdn&#x9;varchar(40)" style="text;strokeColor=none;fillColor=none;spacingLeft=4;spacingRight=4;overflow=hidden;rotatable=0;points=[[0,0.5],[1,0.5]];portConstraint=eastwest;fontSize=12;whiteSpace=wrap;html=1;" vertex="1" parent="8LwbpmmiyCrg8J6Jn0Ju-1">
          <mxGeometry y="150" width="250" height="30" as="geometry" />
        </mxCell>
        <mxCell id="8LwbpmmiyCrg8J6Jn0Ju-10" value="radult&#xa;(взрослый реестр читателей)" style="swimlane;fontStyle=0;childLayout=stackLayout;horizontal=1;startSize=50;horizontalStack=0;resizeParent=1;resizeParentMax=0;resizeLast=0;collapsible=1;marginBottom=0;align=center;fontSize=14;" vertex="1" parent="1">
          <mxGeometry x="-830" y="120" width="285" height="200" as="geometry" />
        </mxCell>
        <mxCell id="8LwbpmmiyCrg8J6Jn0Ju-11" value="pkacard&#x9;integer" style="text;strokeColor=none;fillColor=none;spacingLeft=4;spacingRight=4;overflow=hidden;rotatable=0;points=[[0,0.5],[1,0.5]];portConstraint=eastwest;fontSize=12;whiteSpace=wrap;html=1;" vertex="1" parent="8LwbpmmiyCrg8J6Jn0Ju-10">
          <mxGeometry y="50" width="285" height="30" as="geometry" />
        </mxCell>
        <mxCell id="8LwbpmmiyCrg8J6Jn0Ju-12" value="aaddress&#x9;varchar(40)" style="text;strokeColor=none;fillColor=none;spacingLeft=4;spacingRight=4;overflow=hidden;rotatable=0;points=[[0,0.5],[1,0.5]];portConstraint=eastwest;fontSize=12;whiteSpace=wrap;html=1;" vertex="1" parent="8LwbpmmiyCrg8J6Jn0Ju-10">
          <mxGeometry y="80" width="285" height="30" as="geometry" />
        </mxCell>
        <mxCell id="8LwbpmmiyCrg8J6Jn0Ju-15" value="aphone&#x9;varchar(11)" style="text;strokeColor=none;fillColor=none;spacingLeft=4;spacingRight=4;overflow=hidden;rotatable=0;points=[[0,0.5],[1,0.5]];portConstraint=eastwest;fontSize=12;whiteSpace=wrap;html=1;" vertex="1" parent="8LwbpmmiyCrg8J6Jn0Ju-10">
          <mxGeometry y="110" width="285" height="30" as="geometry" />
        </mxCell>
        <mxCell id="8LwbpmmiyCrg8J6Jn0Ju-14" value="apassseriesnum&#x9;varchar(10)" style="text;strokeColor=none;fillColor=none;spacingLeft=4;spacingRight=4;overflow=hidden;rotatable=0;points=[[0,0.5],[1,0.5]];portConstraint=eastwest;fontSize=12;whiteSpace=wrap;html=1;" vertex="1" parent="8LwbpmmiyCrg8J6Jn0Ju-10">
          <mxGeometry y="140" width="285" height="30" as="geometry" />
        </mxCell>
        <mxCell id="8LwbpmmiyCrg8J6Jn0Ju-13" value="adatepassrelease&#x9;date" style="text;strokeColor=none;fillColor=none;spacingLeft=4;spacingRight=4;overflow=hidden;rotatable=0;points=[[0,0.5],[1,0.5]];portConstraint=eastwest;fontSize=12;whiteSpace=wrap;html=1;" vertex="1" parent="8LwbpmmiyCrg8J6Jn0Ju-10">
          <mxGeometry y="170" width="285" height="30" as="geometry" />
        </mxCell>
        <mxCell id="8LwbpmmiyCrg8J6Jn0Ju-16" value="rchild&#xa;(детский реестр читатей)" style="swimlane;fontStyle=0;childLayout=stackLayout;horizontal=1;startSize=50;horizontalStack=0;resizeParent=1;resizeParentMax=0;resizeLast=0;collapsible=1;marginBottom=0;align=center;fontSize=14;" vertex="1" parent="1">
          <mxGeometry x="-810" y="350" width="287.5" height="170" as="geometry" />
        </mxCell>
        <mxCell id="8LwbpmmiyCrg8J6Jn0Ju-17" value="pkccard&#x9;integer" style="text;strokeColor=none;fillColor=none;spacingLeft=4;spacingRight=4;overflow=hidden;rotatable=0;points=[[0,0.5],[1,0.5]];portConstraint=eastwest;fontSize=12;whiteSpace=wrap;html=1;" vertex="1" parent="8LwbpmmiyCrg8J6Jn0Ju-16">
          <mxGeometry y="50" width="287.5" height="30" as="geometry" />
        </mxCell>
        <mxCell id="8LwbpmmiyCrg8J6Jn0Ju-18" value="bcert&#x9;varchar(7)" style="text;strokeColor=none;fillColor=none;spacingLeft=4;spacingRight=4;overflow=hidden;rotatable=0;points=[[0,0.5],[1,0.5]];portConstraint=eastwest;fontSize=12;whiteSpace=wrap;html=1;" vertex="1" parent="8LwbpmmiyCrg8J6Jn0Ju-16">
          <mxGeometry y="80" width="287.5" height="30" as="geometry" />
        </mxCell>
        <mxCell id="8LwbpmmiyCrg8J6Jn0Ju-20" value="releasecrt&#x9;date" style="text;strokeColor=none;fillColor=none;spacingLeft=4;spacingRight=4;overflow=hidden;rotatable=0;points=[[0,0.5],[1,0.5]];portConstraint=eastwest;fontSize=12;whiteSpace=wrap;html=1;" vertex="1" parent="8LwbpmmiyCrg8J6Jn0Ju-16">
          <mxGeometry y="110" width="287.5" height="30" as="geometry" />
        </mxCell>
        <mxCell id="8LwbpmmiyCrg8J6Jn0Ju-19" value="fkacard&#x9;integer" style="text;strokeColor=none;fillColor=none;spacingLeft=4;spacingRight=4;overflow=hidden;rotatable=0;points=[[0,0.5],[1,0.5]];portConstraint=eastwest;fontSize=12;whiteSpace=wrap;html=1;" vertex="1" parent="8LwbpmmiyCrg8J6Jn0Ju-16">
          <mxGeometry y="140" width="287.5" height="30" as="geometry" />
        </mxCell>
        <mxCell id="8LwbpmmiyCrg8J6Jn0Ju-21" value="sauthor&#xa;(справочник авторов)" style="swimlane;fontStyle=0;childLayout=stackLayout;horizontal=1;startSize=50;horizontalStack=0;resizeParent=1;resizeParentMax=0;resizeLast=0;collapsible=1;marginBottom=0;align=center;fontSize=14;" vertex="1" parent="1">
          <mxGeometry x="-290" y="-10" width="160" height="200" as="geometry" />
        </mxCell>
        <mxCell id="8LwbpmmiyCrg8J6Jn0Ju-22" value="pkidauthors&#x9;serial" style="text;strokeColor=none;fillColor=none;spacingLeft=4;spacingRight=4;overflow=hidden;rotatable=0;points=[[0,0.5],[1,0.5]];portConstraint=eastwest;fontSize=12;whiteSpace=wrap;html=1;" vertex="1" parent="8LwbpmmiyCrg8J6Jn0Ju-21">
          <mxGeometry y="50" width="160" height="30" as="geometry" />
        </mxCell>
        <mxCell id="8LwbpmmiyCrg8J6Jn0Ju-23" value="alastn&#x9;varchar(20)" style="text;strokeColor=none;fillColor=none;spacingLeft=4;spacingRight=4;overflow=hidden;rotatable=0;points=[[0,0.5],[1,0.5]];portConstraint=eastwest;fontSize=12;whiteSpace=wrap;html=1;" vertex="1" parent="8LwbpmmiyCrg8J6Jn0Ju-21">
          <mxGeometry y="80" width="160" height="30" as="geometry" />
        </mxCell>
        <mxCell id="8LwbpmmiyCrg8J6Jn0Ju-24" value="afirstn&#x9;varchar(20)" style="text;strokeColor=none;fillColor=none;spacingLeft=4;spacingRight=4;overflow=hidden;rotatable=0;points=[[0,0.5],[1,0.5]];portConstraint=eastwest;fontSize=12;whiteSpace=wrap;html=1;" vertex="1" parent="8LwbpmmiyCrg8J6Jn0Ju-21">
          <mxGeometry y="110" width="160" height="30" as="geometry" />
        </mxCell>
        <mxCell id="8LwbpmmiyCrg8J6Jn0Ju-26" value="athirdn&#x9;varchar(20)" style="text;strokeColor=none;fillColor=none;spacingLeft=4;spacingRight=4;overflow=hidden;rotatable=0;points=[[0,0.5],[1,0.5]];portConstraint=eastwest;fontSize=12;whiteSpace=wrap;html=1;" vertex="1" parent="8LwbpmmiyCrg8J6Jn0Ju-21">
          <mxGeometry y="140" width="160" height="30" as="geometry" />
        </mxCell>
        <mxCell id="8LwbpmmiyCrg8J6Jn0Ju-25" value="acountry&#x9;varchar(20)" style="text;strokeColor=none;fillColor=none;spacingLeft=4;spacingRight=4;overflow=hidden;rotatable=0;points=[[0,0.5],[1,0.5]];portConstraint=eastwest;fontSize=12;whiteSpace=wrap;html=1;" vertex="1" parent="8LwbpmmiyCrg8J6Jn0Ju-21">
          <mxGeometry y="170" width="160" height="30" as="geometry" />
        </mxCell>
        <mxCell id="8LwbpmmiyCrg8J6Jn0Ju-27" value="spublisher&#xa;(справочник издательств)" style="swimlane;fontStyle=0;childLayout=stackLayout;horizontal=1;startSize=56;horizontalStack=0;resizeParent=1;resizeParentMax=0;resizeLast=0;collapsible=1;marginBottom=0;align=center;fontSize=14;" vertex="1" parent="1">
          <mxGeometry x="640" y="-30" width="257.5" height="266" as="geometry" />
        </mxCell>
        <mxCell id="8LwbpmmiyCrg8J6Jn0Ju-28" value="pkidpublisher&#x9;smallserial" style="text;strokeColor=none;fillColor=none;spacingLeft=4;spacingRight=4;overflow=hidden;rotatable=0;points=[[0,0.5],[1,0.5]];portConstraint=eastwest;fontSize=12;whiteSpace=wrap;html=1;" vertex="1" parent="8LwbpmmiyCrg8J6Jn0Ju-27">
          <mxGeometry y="56" width="257.5" height="30" as="geometry" />
        </mxCell>
        <mxCell id="8LwbpmmiyCrg8J6Jn0Ju-31" value="pname&#x9;varchar(40)" style="text;strokeColor=none;fillColor=none;spacingLeft=4;spacingRight=4;overflow=hidden;rotatable=0;points=[[0,0.5],[1,0.5]];portConstraint=eastwest;fontSize=12;whiteSpace=wrap;html=1;" vertex="1" parent="8LwbpmmiyCrg8J6Jn0Ju-27">
          <mxGeometry y="86" width="257.5" height="30" as="geometry" />
        </mxCell>
        <mxCell id="8LwbpmmiyCrg8J6Jn0Ju-29" value="paddress&#x9;varchar(40)" style="text;strokeColor=none;fillColor=none;spacingLeft=4;spacingRight=4;overflow=hidden;rotatable=0;points=[[0,0.5],[1,0.5]];portConstraint=eastwest;fontSize=12;whiteSpace=wrap;html=1;" vertex="1" parent="8LwbpmmiyCrg8J6Jn0Ju-27">
          <mxGeometry y="116" width="257.5" height="30" as="geometry" />
        </mxCell>
        <mxCell id="8LwbpmmiyCrg8J6Jn0Ju-32" value="pphone&#x9;varchar(11)" style="text;strokeColor=none;fillColor=none;spacingLeft=4;spacingRight=4;overflow=hidden;rotatable=0;points=[[0,0.5],[1,0.5]];portConstraint=eastwest;fontSize=12;whiteSpace=wrap;html=1;" vertex="1" parent="8LwbpmmiyCrg8J6Jn0Ju-27">
          <mxGeometry y="146" width="257.5" height="30" as="geometry" />
        </mxCell>
        <mxCell id="8LwbpmmiyCrg8J6Jn0Ju-30" value="plastn&#x9;varchar(40)" style="text;strokeColor=none;fillColor=none;spacingLeft=4;spacingRight=4;overflow=hidden;rotatable=0;points=[[0,0.5],[1,0.5]];portConstraint=eastwest;fontSize=12;whiteSpace=wrap;html=1;" vertex="1" parent="8LwbpmmiyCrg8J6Jn0Ju-27">
          <mxGeometry y="176" width="257.5" height="30" as="geometry" />
        </mxCell>
        <mxCell id="8LwbpmmiyCrg8J6Jn0Ju-33" value="pfirstn&#x9;varchar(40)" style="text;strokeColor=none;fillColor=none;spacingLeft=4;spacingRight=4;overflow=hidden;rotatable=0;points=[[0,0.5],[1,0.5]];portConstraint=eastwest;fontSize=12;whiteSpace=wrap;html=1;" vertex="1" parent="8LwbpmmiyCrg8J6Jn0Ju-27">
          <mxGeometry y="206" width="257.5" height="30" as="geometry" />
        </mxCell>
        <mxCell id="8LwbpmmiyCrg8J6Jn0Ju-34" value="pthirdn&#x9;varchar(40)" style="text;strokeColor=none;fillColor=none;spacingLeft=4;spacingRight=4;overflow=hidden;rotatable=0;points=[[0,0.5],[1,0.5]];portConstraint=eastwest;fontSize=12;whiteSpace=wrap;html=1;" vertex="1" parent="8LwbpmmiyCrg8J6Jn0Ju-27">
          <mxGeometry y="236" width="257.5" height="30" as="geometry" />
        </mxCell>
        <mxCell id="8LwbpmmiyCrg8J6Jn0Ju-35" value="sudc&#xa;(справочник индексов УДК)" style="swimlane;fontStyle=0;childLayout=stackLayout;horizontal=1;startSize=40;horizontalStack=0;resizeParent=1;resizeParentMax=0;resizeLast=0;collapsible=1;marginBottom=0;align=center;fontSize=14;" vertex="1" parent="1">
          <mxGeometry x="680" y="250" width="260" height="100" as="geometry" />
        </mxCell>
        <mxCell id="8LwbpmmiyCrg8J6Jn0Ju-36" value="pkidudc&#x9;varchar(20)" style="text;strokeColor=none;fillColor=none;spacingLeft=4;spacingRight=4;overflow=hidden;rotatable=0;points=[[0,0.5],[1,0.5]];portConstraint=eastwest;fontSize=12;whiteSpace=wrap;html=1;" vertex="1" parent="8LwbpmmiyCrg8J6Jn0Ju-35">
          <mxGeometry y="40" width="260" height="30" as="geometry" />
        </mxCell>
        <mxCell id="8LwbpmmiyCrg8J6Jn0Ju-37" value="udesc&#x9;varchar(20)" style="text;strokeColor=none;fillColor=none;spacingLeft=4;spacingRight=4;overflow=hidden;rotatable=0;points=[[0,0.5],[1,0.5]];portConstraint=eastwest;fontSize=12;whiteSpace=wrap;html=1;" vertex="1" parent="8LwbpmmiyCrg8J6Jn0Ju-35">
          <mxGeometry y="70" width="260" height="30" as="geometry" />
        </mxCell>
        <mxCell id="8LwbpmmiyCrg8J6Jn0Ju-39" value="cformat&#xa;(каталог форматов)" style="swimlane;fontStyle=0;childLayout=stackLayout;horizontal=1;startSize=62;horizontalStack=0;resizeParent=1;resizeParentMax=0;resizeLast=0;collapsible=1;marginBottom=0;align=center;fontSize=14;" vertex="1" parent="1">
          <mxGeometry x="687.5" y="380" width="160" height="122" as="geometry" />
        </mxCell>
        <mxCell id="8LwbpmmiyCrg8J6Jn0Ju-40" value="pkidformat&#x9;smallserial" style="text;strokeColor=none;fillColor=none;spacingLeft=4;spacingRight=4;overflow=hidden;rotatable=0;points=[[0,0.5],[1,0.5]];portConstraint=eastwest;fontSize=12;whiteSpace=wrap;html=1;" vertex="1" parent="8LwbpmmiyCrg8J6Jn0Ju-39">
          <mxGeometry y="62" width="160" height="30" as="geometry" />
        </mxCell>
        <mxCell id="8LwbpmmiyCrg8J6Jn0Ju-41" value="fname&#x9;varchar(20)" style="text;strokeColor=none;fillColor=none;spacingLeft=4;spacingRight=4;overflow=hidden;rotatable=0;points=[[0,0.5],[1,0.5]];portConstraint=eastwest;fontSize=12;whiteSpace=wrap;html=1;" vertex="1" parent="8LwbpmmiyCrg8J6Jn0Ju-39">
          <mxGeometry y="92" width="160" height="30" as="geometry" />
        </mxCell>
        <mxCell id="8LwbpmmiyCrg8J6Jn0Ju-43" value="cbinding&#xa;(каталог переплетов)" style="swimlane;fontStyle=0;childLayout=stackLayout;horizontal=1;startSize=50;horizontalStack=0;resizeParent=1;resizeParentMax=0;resizeLast=0;collapsible=1;marginBottom=0;align=center;fontSize=14;" vertex="1" parent="1">
          <mxGeometry x="690" y="510" width="160" height="110" as="geometry" />
        </mxCell>
        <mxCell id="8LwbpmmiyCrg8J6Jn0Ju-44" value="pkidbinding&#x9;smallserial" style="text;strokeColor=none;fillColor=none;spacingLeft=4;spacingRight=4;overflow=hidden;rotatable=0;points=[[0,0.5],[1,0.5]];portConstraint=eastwest;fontSize=12;whiteSpace=wrap;html=1;" vertex="1" parent="8LwbpmmiyCrg8J6Jn0Ju-43">
          <mxGeometry y="50" width="160" height="30" as="geometry" />
        </mxCell>
        <mxCell id="8LwbpmmiyCrg8J6Jn0Ju-45" value="bname&#x9;varchar(20)" style="text;strokeColor=none;fillColor=none;spacingLeft=4;spacingRight=4;overflow=hidden;rotatable=0;points=[[0,0.5],[1,0.5]];portConstraint=eastwest;fontSize=12;whiteSpace=wrap;html=1;" vertex="1" parent="8LwbpmmiyCrg8J6Jn0Ju-43">
          <mxGeometry y="80" width="160" height="30" as="geometry" />
        </mxCell>
        <mxCell id="8LwbpmmiyCrg8J6Jn0Ju-47" value="cgenre&#xa;(каталог жанров)" style="swimlane;fontStyle=0;childLayout=stackLayout;horizontal=1;startSize=40;horizontalStack=0;resizeParent=1;resizeParentMax=0;resizeLast=0;collapsible=1;marginBottom=0;align=center;fontSize=14;" vertex="1" parent="1">
          <mxGeometry x="200" y="-30" width="160" height="100" as="geometry" />
        </mxCell>
        <mxCell id="8LwbpmmiyCrg8J6Jn0Ju-48" value="idgenres&#x9;smallserial" style="text;strokeColor=none;fillColor=none;spacingLeft=4;spacingRight=4;overflow=hidden;rotatable=0;points=[[0,0.5],[1,0.5]];portConstraint=eastwest;fontSize=12;whiteSpace=wrap;html=1;" vertex="1" parent="8LwbpmmiyCrg8J6Jn0Ju-47">
          <mxGeometry y="40" width="160" height="30" as="geometry" />
        </mxCell>
        <mxCell id="8LwbpmmiyCrg8J6Jn0Ju-49" value="gname&#x9;varchar(20)" style="text;strokeColor=none;fillColor=none;spacingLeft=4;spacingRight=4;overflow=hidden;rotatable=0;points=[[0,0.5],[1,0.5]];portConstraint=eastwest;fontSize=12;whiteSpace=wrap;html=1;" vertex="1" parent="8LwbpmmiyCrg8J6Jn0Ju-47">
          <mxGeometry y="70" width="160" height="30" as="geometry" />
        </mxCell>
        <mxCell id="8LwbpmmiyCrg8J6Jn0Ju-51" value="rbook&#xa;(реестр книг)" style="swimlane;fontStyle=0;childLayout=stackLayout;horizontal=1;startSize=46;horizontalStack=0;resizeParent=1;resizeParentMax=0;resizeLast=0;collapsible=1;marginBottom=0;align=center;fontSize=14;rounded=1;" vertex="1" parent="1">
          <mxGeometry x="420" y="100" width="160" height="286" as="geometry" />
        </mxCell>
        <mxCell id="8LwbpmmiyCrg8J6Jn0Ju-52" value="pkisbn&#x9;varchar(20)" style="text;strokeColor=none;fillColor=none;spacingLeft=4;spacingRight=4;overflow=hidden;rotatable=0;points=[[0,0.5],[1,0.5]];portConstraint=eastwest;fontSize=12;whiteSpace=wrap;html=1;" vertex="1" parent="8LwbpmmiyCrg8J6Jn0Ju-51">
          <mxGeometry y="46" width="160" height="30" as="geometry" />
        </mxCell>
        <mxCell id="8LwbpmmiyCrg8J6Jn0Ju-58" value="bname&#x9;varchar(40)" style="text;strokeColor=none;fillColor=none;spacingLeft=4;spacingRight=4;overflow=hidden;rotatable=0;points=[[0,0.5],[1,0.5]];portConstraint=eastwest;fontSize=12;whiteSpace=wrap;html=1;" vertex="1" parent="8LwbpmmiyCrg8J6Jn0Ju-51">
          <mxGeometry y="76" width="160" height="30" as="geometry" />
        </mxCell>
        <mxCell id="8LwbpmmiyCrg8J6Jn0Ju-59" value="bypubl&#x9;numeric(4)" style="text;strokeColor=none;fillColor=none;spacingLeft=4;spacingRight=4;overflow=hidden;rotatable=0;points=[[0,0.5],[1,0.5]];portConstraint=eastwest;fontSize=12;whiteSpace=wrap;html=1;" vertex="1" parent="8LwbpmmiyCrg8J6Jn0Ju-51">
          <mxGeometry y="106" width="160" height="30" as="geometry" />
        </mxCell>
        <mxCell id="8LwbpmmiyCrg8J6Jn0Ju-55" value="bquantity&#x9;smallint" style="text;strokeColor=none;fillColor=none;spacingLeft=4;spacingRight=4;overflow=hidden;rotatable=0;points=[[0,0.5],[1,0.5]];portConstraint=eastwest;fontSize=12;whiteSpace=wrap;html=1;" vertex="1" parent="8LwbpmmiyCrg8J6Jn0Ju-51">
          <mxGeometry y="136" width="160" height="30" as="geometry" />
        </mxCell>
        <mxCell id="8LwbpmmiyCrg8J6Jn0Ju-53" value="fkcodepubl&#x9;smallint" style="text;strokeColor=none;fillColor=none;spacingLeft=4;spacingRight=4;overflow=hidden;rotatable=0;points=[[0,0.5],[1,0.5]];portConstraint=eastwest;fontSize=12;whiteSpace=wrap;html=1;" vertex="1" parent="8LwbpmmiyCrg8J6Jn0Ju-51">
          <mxGeometry y="166" width="160" height="30" as="geometry" />
        </mxCell>
        <mxCell id="8LwbpmmiyCrg8J6Jn0Ju-56" value="fkudc&#x9;varchar(20)" style="text;strokeColor=none;fillColor=none;spacingLeft=4;spacingRight=4;overflow=hidden;rotatable=0;points=[[0,0.5],[1,0.5]];portConstraint=eastwest;fontSize=12;whiteSpace=wrap;html=1;" vertex="1" parent="8LwbpmmiyCrg8J6Jn0Ju-51">
          <mxGeometry y="196" width="160" height="30" as="geometry" />
        </mxCell>
        <mxCell id="8LwbpmmiyCrg8J6Jn0Ju-57" value="fkidformat&#x9;smallint" style="text;strokeColor=none;fillColor=none;spacingLeft=4;spacingRight=4;overflow=hidden;rotatable=0;points=[[0,0.5],[1,0.5]];portConstraint=eastwest;fontSize=12;whiteSpace=wrap;html=1;" vertex="1" parent="8LwbpmmiyCrg8J6Jn0Ju-51">
          <mxGeometry y="226" width="160" height="30" as="geometry" />
        </mxCell>
        <mxCell id="8LwbpmmiyCrg8J6Jn0Ju-54" value="fkidbinding&#x9;smallint" style="text;strokeColor=none;fillColor=none;spacingLeft=4;spacingRight=4;overflow=hidden;rotatable=0;points=[[0,0.5],[1,0.5]];portConstraint=eastwest;fontSize=12;whiteSpace=wrap;html=1;" vertex="1" parent="8LwbpmmiyCrg8J6Jn0Ju-51">
          <mxGeometry y="256" width="160" height="30" as="geometry" />
        </mxCell>
        <mxCell id="8LwbpmmiyCrg8J6Jn0Ju-60" value="authorbook&#xa;(связующая таблица авторов и книг)" style="swimlane;fontStyle=0;childLayout=stackLayout;horizontal=1;startSize=50;horizontalStack=0;resizeParent=1;resizeParentMax=0;resizeLast=0;collapsible=1;marginBottom=0;align=center;fontSize=14;" vertex="1" parent="1">
          <mxGeometry x="40" y="80" width="280" height="110" as="geometry" />
        </mxCell>
        <mxCell id="8LwbpmmiyCrg8J6Jn0Ju-61" value="pkfkabisbn&#x9;varchar(20)&lt;span style=&quot;&quot;&gt;&lt;span style=&quot;white-space: pre;&quot;&gt;&amp;nbsp;&amp;nbsp;&amp;nbsp;&amp;nbsp;&lt;/span&gt;&lt;/span&gt;" style="text;strokeColor=none;fillColor=none;spacingLeft=4;spacingRight=4;overflow=hidden;rotatable=0;points=[[0,0.5],[1,0.5]];portConstraint=eastwest;fontSize=12;whiteSpace=wrap;html=1;" vertex="1" parent="8LwbpmmiyCrg8J6Jn0Ju-60">
          <mxGeometry y="50" width="280" height="30" as="geometry" />
        </mxCell>
        <mxCell id="8LwbpmmiyCrg8J6Jn0Ju-62" value="pkfkauthor&#x9;integer" style="text;strokeColor=none;fillColor=none;spacingLeft=4;spacingRight=4;overflow=hidden;rotatable=0;points=[[0,0.5],[1,0.5]];portConstraint=eastwest;fontSize=12;whiteSpace=wrap;html=1;" vertex="1" parent="8LwbpmmiyCrg8J6Jn0Ju-60">
          <mxGeometry y="80" width="280" height="30" as="geometry" />
        </mxCell>
        <mxCell id="8LwbpmmiyCrg8J6Jn0Ju-64" value="genrebook&#xa;(связующая таблица для жанров и книг)&#xa;" style="swimlane;fontStyle=0;childLayout=stackLayout;horizontal=1;startSize=58;horizontalStack=0;resizeParent=1;resizeParentMax=0;resizeLast=0;collapsible=1;marginBottom=0;align=center;fontSize=14;" vertex="1" parent="1">
          <mxGeometry x="-290" y="-180" width="290" height="118" as="geometry" />
        </mxCell>
        <mxCell id="8LwbpmmiyCrg8J6Jn0Ju-65" value="fkgbisbn&#x9;varchar(20)" style="text;strokeColor=none;fillColor=none;spacingLeft=4;spacingRight=4;overflow=hidden;rotatable=0;points=[[0,0.5],[1,0.5]];portConstraint=eastwest;fontSize=12;whiteSpace=wrap;html=1;" vertex="1" parent="8LwbpmmiyCrg8J6Jn0Ju-64">
          <mxGeometry y="58" width="290" height="30" as="geometry" />
        </mxCell>
        <mxCell id="8LwbpmmiyCrg8J6Jn0Ju-66" value="fkgbidgenre&#x9;smallint" style="text;strokeColor=none;fillColor=none;spacingLeft=4;spacingRight=4;overflow=hidden;rotatable=0;points=[[0,0.5],[1,0.5]];portConstraint=eastwest;fontSize=12;whiteSpace=wrap;html=1;" vertex="1" parent="8LwbpmmiyCrg8J6Jn0Ju-64">
          <mxGeometry y="88" width="290" height="30" as="geometry" />
        </mxCell>
        <mxCell id="8LwbpmmiyCrg8J6Jn0Ju-68" value="instancebook " style="swimlane;fontStyle=0;childLayout=stackLayout;horizontal=1;startSize=26;horizontalStack=0;resizeParent=1;resizeParentMax=0;resizeLast=0;collapsible=1;marginBottom=0;align=center;fontSize=14;" vertex="1" parent="1">
          <mxGeometry x="170" y="206" width="160" height="86" as="geometry" />
        </mxCell>
        <mxCell id="8LwbpmmiyCrg8J6Jn0Ju-69" value="pkibarcode&#x9;varchar(20)" style="text;strokeColor=none;fillColor=none;spacingLeft=4;spacingRight=4;overflow=hidden;rotatable=0;points=[[0,0.5],[1,0.5]];portConstraint=eastwest;fontSize=12;whiteSpace=wrap;html=1;" vertex="1" parent="8LwbpmmiyCrg8J6Jn0Ju-68">
          <mxGeometry y="26" width="160" height="30" as="geometry" />
        </mxCell>
        <mxCell id="8LwbpmmiyCrg8J6Jn0Ju-70" value="iisbn&#x9;varchar(20)" style="text;strokeColor=none;fillColor=none;spacingLeft=4;spacingRight=4;overflow=hidden;rotatable=0;points=[[0,0.5],[1,0.5]];portConstraint=eastwest;fontSize=12;whiteSpace=wrap;html=1;" vertex="1" parent="8LwbpmmiyCrg8J6Jn0Ju-68">
          <mxGeometry y="56" width="160" height="30" as="geometry" />
        </mxCell>
        <mxCell id="8LwbpmmiyCrg8J6Jn0Ju-72" value="jlibticket&#xa;(Читательский билет &#xa;(журнал взятых книг))" style="swimlane;fontStyle=0;childLayout=stackLayout;horizontal=1;startSize=70;horizontalStack=0;resizeParent=1;resizeParentMax=0;resizeLast=0;collapsible=1;marginBottom=0;align=center;fontSize=14;rounded=1;" vertex="1" parent="1">
          <mxGeometry x="-130" y="206" width="220" height="220" as="geometry" />
        </mxCell>
        <mxCell id="8LwbpmmiyCrg8J6Jn0Ju-73" value="fktcard&#x9;integer" style="text;strokeColor=none;fillColor=none;spacingLeft=4;spacingRight=4;overflow=hidden;rotatable=0;points=[[0,0.5],[1,0.5]];portConstraint=eastwest;fontSize=12;whiteSpace=wrap;html=1;" vertex="1" parent="8LwbpmmiyCrg8J6Jn0Ju-72">
          <mxGeometry y="70" width="220" height="30" as="geometry" />
        </mxCell>
        <mxCell id="8LwbpmmiyCrg8J6Jn0Ju-74" value="fktbarcode&#x9;varchar(20)" style="text;strokeColor=none;fillColor=none;spacingLeft=4;spacingRight=4;overflow=hidden;rotatable=0;points=[[0,0.5],[1,0.5]];portConstraint=eastwest;fontSize=12;whiteSpace=wrap;html=1;" vertex="1" parent="8LwbpmmiyCrg8J6Jn0Ju-72">
          <mxGeometry y="100" width="220" height="30" as="geometry" />
        </mxCell>
        <mxCell id="8LwbpmmiyCrg8J6Jn0Ju-77" value="dategive&#x9;date" style="text;strokeColor=none;fillColor=none;spacingLeft=4;spacingRight=4;overflow=hidden;rotatable=0;points=[[0,0.5],[1,0.5]];portConstraint=eastwest;fontSize=12;whiteSpace=wrap;html=1;" vertex="1" parent="8LwbpmmiyCrg8J6Jn0Ju-72">
          <mxGeometry y="130" width="220" height="30" as="geometry" />
        </mxCell>
        <mxCell id="8LwbpmmiyCrg8J6Jn0Ju-75" value="datereturnexpect&#x9;date" style="text;strokeColor=none;fillColor=none;spacingLeft=4;spacingRight=4;overflow=hidden;rotatable=0;points=[[0,0.5],[1,0.5]];portConstraint=eastwest;fontSize=12;whiteSpace=wrap;html=1;" vertex="1" parent="8LwbpmmiyCrg8J6Jn0Ju-72">
          <mxGeometry y="160" width="220" height="30" as="geometry" />
        </mxCell>
        <mxCell id="8LwbpmmiyCrg8J6Jn0Ju-76" value="datereturnfact&#x9;date" style="text;strokeColor=none;fillColor=none;spacingLeft=4;spacingRight=4;overflow=hidden;rotatable=0;points=[[0,0.5],[1,0.5]];portConstraint=eastwest;fontSize=12;whiteSpace=wrap;html=1;" vertex="1" parent="8LwbpmmiyCrg8J6Jn0Ju-72">
          <mxGeometry y="190" width="220" height="30" as="geometry" />
        </mxCell>
        <mxCell id="8LwbpmmiyCrg8J6Jn0Ju-79" value="" style="edgeStyle=entityRelationEdgeStyle;fontSize=12;html=1;endArrow=ERmany;rounded=0;dashed=1;dashPattern=12 12;" edge="1" parent="1" source="8LwbpmmiyCrg8J6Jn0Ju-28" target="8LwbpmmiyCrg8J6Jn0Ju-53">
          <mxGeometry width="100" height="100" relative="1" as="geometry">
            <mxPoint x="510" y="420" as="sourcePoint" />
            <mxPoint x="610" y="320" as="targetPoint" />
          </mxGeometry>
        </mxCell>
        <mxCell id="8LwbpmmiyCrg8J6Jn0Ju-80" value="" style="edgeStyle=entityRelationEdgeStyle;fontSize=12;html=1;endArrow=ERzeroToMany;rounded=0;exitX=0;exitY=0.5;exitDx=0;exitDy=0;dashed=1;dashPattern=12 12;endFill=0;" edge="1" parent="1" source="8LwbpmmiyCrg8J6Jn0Ju-44" target="8LwbpmmiyCrg8J6Jn0Ju-54">
          <mxGeometry width="100" height="100" relative="1" as="geometry">
            <mxPoint x="720" y="110" as="sourcePoint" />
            <mxPoint x="610" y="320" as="targetPoint" />
          </mxGeometry>
        </mxCell>
        <mxCell id="8LwbpmmiyCrg8J6Jn0Ju-81" value="" style="edgeStyle=entityRelationEdgeStyle;fontSize=12;html=1;endArrow=ERzeroToMany;rounded=0;exitX=0;exitY=0.5;exitDx=0;exitDy=0;dashed=1;dashPattern=12 12;endFill=0;" edge="1" parent="1" source="8LwbpmmiyCrg8J6Jn0Ju-40" target="8LwbpmmiyCrg8J6Jn0Ju-57">
          <mxGeometry width="100" height="100" relative="1" as="geometry">
            <mxPoint x="510" y="420" as="sourcePoint" />
            <mxPoint x="610" y="320" as="targetPoint" />
          </mxGeometry>
        </mxCell>
        <mxCell id="8LwbpmmiyCrg8J6Jn0Ju-82" value="" style="edgeStyle=entityRelationEdgeStyle;fontSize=12;html=1;endArrow=ERzeroToMany;rounded=0;exitX=0;exitY=0.5;exitDx=0;exitDy=0;dashed=1;dashPattern=12 12;endFill=0;" edge="1" parent="1" source="8LwbpmmiyCrg8J6Jn0Ju-36" target="8LwbpmmiyCrg8J6Jn0Ju-56">
          <mxGeometry width="100" height="100" relative="1" as="geometry">
            <mxPoint x="510" y="420" as="sourcePoint" />
            <mxPoint x="610" y="320" as="targetPoint" />
          </mxGeometry>
        </mxCell>
        <mxCell id="8LwbpmmiyCrg8J6Jn0Ju-83" value="" style="edgeStyle=entityRelationEdgeStyle;fontSize=12;html=1;endArrow=ERmany;rounded=0;exitX=0;exitY=0.5;exitDx=0;exitDy=0;startArrow=ERone;startFill=0;" edge="1" parent="1" source="8LwbpmmiyCrg8J6Jn0Ju-52" target="8LwbpmmiyCrg8J6Jn0Ju-48">
          <mxGeometry width="100" height="100" relative="1" as="geometry">
            <mxPoint x="480" y="560" as="sourcePoint" />
            <mxPoint x="580" y="460" as="targetPoint" />
          </mxGeometry>
        </mxCell>
        <mxCell id="8LwbpmmiyCrg8J6Jn0Ju-87" value="" style="edgeStyle=entityRelationEdgeStyle;fontSize=12;html=1;endArrow=ERmandOne;startArrow=ERmandOne;rounded=0;" edge="1" parent="1" source="8LwbpmmiyCrg8J6Jn0Ju-2" target="8LwbpmmiyCrg8J6Jn0Ju-11">
          <mxGeometry width="100" height="100" relative="1" as="geometry">
            <mxPoint x="110" y="750" as="sourcePoint" />
            <mxPoint x="210" y="650" as="targetPoint" />
          </mxGeometry>
        </mxCell>
        <mxCell id="8LwbpmmiyCrg8J6Jn0Ju-88" value="" style="edgeStyle=entityRelationEdgeStyle;fontSize=12;html=1;endArrow=ERmandOne;startArrow=ERmandOne;rounded=0;" edge="1" parent="1" source="8LwbpmmiyCrg8J6Jn0Ju-2" target="8LwbpmmiyCrg8J6Jn0Ju-17">
          <mxGeometry width="100" height="100" relative="1" as="geometry">
            <mxPoint x="230" y="805" as="sourcePoint" />
            <mxPoint x="350" y="685" as="targetPoint" />
          </mxGeometry>
        </mxCell>
        <mxCell id="8LwbpmmiyCrg8J6Jn0Ju-89" value="" style="edgeStyle=entityRelationEdgeStyle;fontSize=12;html=1;endArrow=ERoneToMany;rounded=0;entryX=0;entryY=0.5;entryDx=0;entryDy=0;startArrow=ERone;startFill=0;" edge="1" parent="1" source="8LwbpmmiyCrg8J6Jn0Ju-65" target="8LwbpmmiyCrg8J6Jn0Ju-48">
          <mxGeometry width="100" height="100" relative="1" as="geometry">
            <mxPoint x="-70" y="320" as="sourcePoint" />
            <mxPoint x="30" y="220" as="targetPoint" />
          </mxGeometry>
        </mxCell>
        <mxCell id="8LwbpmmiyCrg8J6Jn0Ju-90" value="" style="edgeStyle=entityRelationEdgeStyle;fontSize=12;html=1;endArrow=ERmany;rounded=0;exitX=0;exitY=0.5;exitDx=0;exitDy=0;" edge="1" parent="1" source="8LwbpmmiyCrg8J6Jn0Ju-52" target="8LwbpmmiyCrg8J6Jn0Ju-61">
          <mxGeometry width="100" height="100" relative="1" as="geometry">
            <mxPoint x="250" y="320" as="sourcePoint" />
            <mxPoint x="480" y="210" as="targetPoint" />
          </mxGeometry>
        </mxCell>
        <mxCell id="8LwbpmmiyCrg8J6Jn0Ju-91" value="" style="edgeStyle=entityRelationEdgeStyle;fontSize=12;html=1;endArrow=ERmany;rounded=0;startArrow=ERone;startFill=0;" edge="1" parent="1" source="8LwbpmmiyCrg8J6Jn0Ju-22" target="8LwbpmmiyCrg8J6Jn0Ju-60">
          <mxGeometry width="100" height="100" relative="1" as="geometry">
            <mxPoint y="310" as="sourcePoint" />
            <mxPoint x="100" y="210" as="targetPoint" />
          </mxGeometry>
        </mxCell>
        <mxCell id="8LwbpmmiyCrg8J6Jn0Ju-92" value="" style="edgeStyle=entityRelationEdgeStyle;fontSize=12;html=1;endArrow=ERoneToMany;rounded=0;exitX=0;exitY=0.5;exitDx=0;exitDy=0;entryX=1;entryY=0.5;entryDx=0;entryDy=0;dashed=1;dashPattern=12 12;" edge="1" parent="1" source="8LwbpmmiyCrg8J6Jn0Ju-52" target="8LwbpmmiyCrg8J6Jn0Ju-69">
          <mxGeometry width="100" height="100" relative="1" as="geometry">
            <mxPoint x="50" y="320" as="sourcePoint" />
            <mxPoint x="150" y="220" as="targetPoint" />
          </mxGeometry>
        </mxCell>
        <mxCell id="8LwbpmmiyCrg8J6Jn0Ju-106" value="" style="edgeStyle=entityRelationEdgeStyle;fontSize=12;html=1;endArrow=ERzeroToMany;rounded=0;startArrow=ERone;startFill=0;endFill=0;" edge="1" parent="1" source="8LwbpmmiyCrg8J6Jn0Ju-2" target="8LwbpmmiyCrg8J6Jn0Ju-73">
          <mxGeometry width="100" height="100" relative="1" as="geometry">
            <mxPoint x="190" y="480" as="sourcePoint" />
            <mxPoint x="290" y="380" as="targetPoint" />
            <Array as="points">
              <mxPoint x="-60" y="670" />
            </Array>
          </mxGeometry>
        </mxCell>
        <mxCell id="8LwbpmmiyCrg8J6Jn0Ju-108" value="" style="edgeStyle=entityRelationEdgeStyle;fontSize=12;html=1;endArrow=ERzeroToMany;rounded=0;jumpStyle=arc;exitX=0;exitY=0.5;exitDx=0;exitDy=0;entryX=0;entryY=0.5;entryDx=0;entryDy=0;dashed=1;dashPattern=12 12;jumpSize=11;targetPerimeterSpacing=14;endFill=0;" edge="1" parent="1" source="8LwbpmmiyCrg8J6Jn0Ju-11" target="8LwbpmmiyCrg8J6Jn0Ju-17">
          <mxGeometry width="100" height="100" relative="1" as="geometry">
            <mxPoint x="-970" y="220" as="sourcePoint" />
            <mxPoint x="-970" y="520" as="targetPoint" />
            <Array as="points">
              <mxPoint x="-1210" y="370" />
              <mxPoint x="-930" y="340" />
              <mxPoint x="-840" y="220" />
              <mxPoint x="-700" y="400" />
              <mxPoint x="-790" y="355" />
              <mxPoint x="-1140" y="95" />
            </Array>
          </mxGeometry>
        </mxCell>
        <mxCell id="8LwbpmmiyCrg8J6Jn0Ju-107" value="" style="edgeStyle=entityRelationEdgeStyle;fontSize=12;html=1;endArrow=ERzeroToMany;rounded=0;exitX=0;exitY=0.5;exitDx=0;exitDy=0;dashed=1;dashPattern=12 12;endFill=0;" edge="1" parent="1" source="8LwbpmmiyCrg8J6Jn0Ju-69" target="8LwbpmmiyCrg8J6Jn0Ju-74">
          <mxGeometry width="100" height="100" relative="1" as="geometry">
            <mxPoint x="-180" y="580" as="sourcePoint" />
            <mxPoint x="70" y="520" as="targetPoint" />
          </mxGeometry>
        </mxCell>
      </root>
    </mxGraphModel>
  </diagram>
</mxfile>
